<?xml version="1.0" standalone="no"?>
<!DOCTYPE svg PUBLIC "-//W3C//DTD SVG 20010904//EN"
 "http://www.w3.org/TR/2001/REC-SVG-20010904/DTD/svg10.dtd">
<svg version="1.0" xmlns="http://www.w3.org/2000/svg"
 width="100.000000pt" height="100.000000pt" viewBox="0 0 100.000000 100.000000"
 preserveAspectRatio="xMidYMid meet">

<g transform="translate(0.000000,100.000000) scale(0.100000,-0.100000)"
fill="#000000" stroke="none">
<path d="M0 500 l0 -500 500 0 500 0 0 500 0 500 -500 0 -500 0 0 -500z m684
111 c113 -44 68 -171 -60 -171 -61 0 -124 47 -124 92 0 25 43 70 81 84 34 13
58 12 103 -5z m-294 -6 c0 -12 -26 -15 -152 -17 -128 -3 -153 -5 -153 -18 0
-11 15 -17 50 -20 70 -8 97 -25 93 -58 -4 -36 -39 -52 -115 -52 -49 0 -63 3
-63 15 0 12 13 15 58 15 62 0 89 14 71 37 -7 7 -32 13 -60 13 -37 0 -53 5 -69
22 -26 28 -25 32 6 57 24 19 40 21 180 21 129 0 154 -2 154 -15z m70 -75 c0
-82 -2 -90 -19 -90 -16 0 -20 8 -23 38 l-3 37 -50 0 -50 0 -3 -77 c-3 -70 -5
-78 -22 -78 -18 0 -20 7 -20 95 l0 95 75 0 75 0 0 35 c0 28 4 35 20 35 19 0
20 -7 20 -90z m468 79 c17 -6 38 -21 47 -35 14 -22 14 -26 -2 -50 -20 -31 -51
-44 -104 -44 -32 0 -39 -3 -39 -20 0 -13 -7 -20 -20 -20 -16 0 -20 7 -20 35
l0 35 56 0 c84 0 116 26 78 64 -10 11 -34 16 -75 16 -46 0 -59 3 -59 15 0 18
90 21 138 4z"/>
<path d="M565 565 c-14 -13 -25 -29 -25 -35 0 -24 49 -60 83 -60 40 0 87 33
87 60 0 27 -47 60 -87 60 -23 0 -42 -8 -58 -25z"/>
</g>
</svg>
